<svg xmlns="http://www.w3.org/2000/svg" version="1.1" xmlns:xlink="http://www.w3.org/1999/xlink" xmlns:svgjs="http://svgjs.dev/svgjs" viewBox="0 0 800 800"><defs><linearGradient x1="50%" y1="0%" x2="50%" y2="100%" id="ssscribble-grad"><stop stop-color="hsl(206, 75%, 49%)" stop-opacity="1" offset="0%"></stop><stop stop-color="hsl(331, 90%, 56%)" stop-opacity="1" offset="100%"></stop></linearGradient></defs><g fill="none" stroke-width="1.5" stroke="hsl(265, 55%, 20%)" stroke-linecap="round"><path d="M948.12 318.38C897.86 351.52 837 382.24 791.96 411.41 780.27 441.97 799.57 473.66 835.35 508.77 873.62 548.46 892.33 594.44 883.72 646.88 850.42 701.84 797.6 757.81 737.34 807.81 677.51 845.1 626.32 863.89 586.2 859.76 557.02 839.88 535.79 808.39 517.95 778.82 504.68 769.6 489.04 785.88 468.55 828.26 448.58 886.5 422.29 939.36 389.16 965.07 356.02 954.76 317.6 910.67 275.08 851.64 233.07 799.64 188.43 769.08 144.27 764.79 104.69 785.36 71.35 815.12 49.46 839.92 38.51 854.03 42.13 846.87 58.52 819.92 75.35 778.01 88.89 726.16 87.68 671.76 61.78 616.96 13.36 566.79 -49.2 522.47 -109.26 481.92 -147.42 445.65 -148.52 411.9 -116.28 379.54 -62.13 347.16 -11.87 314.02 5.89 280.89 -12.95 248.56 -55.77 218.43 -104.76 189.69 -132.45 165.67 -126.93 148.79 -90.78 135.69 -32.54 131.29 30.74 135.01 85.75 138.34 123.47 142.62 143.19 141.1 145.59 124.62 140.29 92.5 135.23 43.89 129.69 -15.41 133 -74.88 145.81 -119.74 163.09 -139.75 187.93 -128.06 217.5 -88.85 248.65 -42.61 281.59 -5.23 314.73 5.08 347.86 -20.61 379.63 -66.75 410.97 -112.21 443.9 -141.8 479.34 -139.23 519.48 -105.72 564.1 -51.87 615.36 9.33 671.97 63.72 728.1 102.35 780.97 122.86 822.01 129 846.5 118.24 783.73 113.07 757.61 135.1 776.38 157.42 822.94 186 884.71 217.93 940.32 251.26 965.89 285.25 948.12 318.38Q948.12 318.38 948.12 318.38" opacity="0.13"></path><path d="M852.11 402.4C813.49 428.91 764.18 459.4 718.69 493.12 689.09 526.67 679.36 562.9 687.78 600.23 711.66 635.65 738.88 669.43 760.56 698.4 774.41 721.03 772.84 734.66 756.55 736.93 728.77 731.38 691.58 716.28 649.95 695.27 605.31 678.07 561.79 666.78 521.53 667.82 482.46 686.69 447.1 720.91 415.28 765.64 384.19 812.97 355.42 851.07 328.91 869.08 302.4 863.73 279.4 834.64 260.5 790.66 242.33 743.13 229.46 701.06 222.59 671.61 216.84 660.17 220.89 699.66 213.49 718.09 195.04 722.55 165.18 716.29 123.73 700.53 74.44 678.28 23.44 649.76 -19.86 618.07 -47.71 583.79 -53.07 549.39 -33.7 516.79 1.55 483.78 45.49 453.56 84.11 427.05 101.63 400.54 95.81 379 70.98 362.01 33.12 344.61 -2.03 330.79 -23.92 319.12 -29.39 304.88 -13.44 289.74 19.82 271.14 64.57 246.04 114.4 214.25 162.6 175.04 206.18 130.27 241.98 82.04 270.12 35.58 299.18 -16.14 340.47 -12.53 364.31 38.25 380.89 72.01 402.19 95.72 428.7 101.08 455.21 83.08 485.67 50.35 519.08 13.26 552 -21.25 586.7 -40.38 620.99 -39.82 652.24 -21.43 679.55 13.62 699.52 58.42 712.23 107.04 714.5 153.57 705.67 193.87 692.22 226.34 673.81 250.78 656.67 269 651 280.89 658.82 290.77 683.72 301.29 725.03 309.9 775.28 321.89 823.37 338.33 858.44 354.61 869.63 375.88 852.12 402.39Q852.11 402.4 852.11 402.4" opacity="0.70"></path><path d="M756.11 479.95C728.55 499.83 692.69 517.9 655.03 533.74 619.2 563.24 620.86 571.31 598.08 602.65 579.56 633.5 559.07 668.78 538.01 704.58 516.41 737.27 495.3 761.6 475.42 773.08 455.54 771.29 437.83 754.97 421.92 727.53 405.49 693.79 389.81 657.19 373.88 622.24 355.88 592.35 335.79 569.09 312.49 553 285.65 544.91 254.65 542.24 219.88 542.82 183.31 547.51 145.81 551.82 110.53 553.96 69.77 555.7 57.76 537.87 90.73 518.8 120.72 504.53 152.55 487.33 180.11 467.45 195.66 447.57 198.63 425.95 189.86 402.72 169.78 379.13 145.17 353.31 121.11 325.22 98.86 296.35 84.95 265.01 81.06 231.93 85.62 199.14 100.15 166.29 122.35 135.54 150.19 108.89 181.8 87.98 214.55 75.37 248.47 70.76 281.13 76.19 311.41 91.5 341.13 111.88 368.33 137.15 392.9 163.22 417.12 182.99 439.26 195.28 459.15 197.08 479.03 185.6 495.71 165.3 508.98 140.29 533.12 82.12 532.97 110.91 529.64 155.6 533.5 189.52 542.55 223.89 558.69 256.88 583.28 289.11 615.01 318.88 651.84 345.94 690.47 371.76 726.4 395.56 754.15 417.66 770.6 439.31 771.66 460.06 756.12 479.94Q756.11 479.95 756.11 479.95" opacity="0.86"></path><path d="M660.11 342.88C621.5 369.38 570.62 388.07 523.1 401.08 488.19 416.86 467.18 432.58 456.67 453.11 456.84 483.53 456.59 523.77 450 570.9 444.46 619.28 429.03 659.07 402.52 677.08 376.01 671.73 340.93 640.8 300.53 595.85 261.18 546.97 220.06 501.01 185.14 463.46 160.91 434.55 153.8 411.83 169.28 391.41 197.37 374.13 237.5 353.29 276.11 326.79 293.63 300.28 291 270.6 274.26 241.95 223.57 205.38 277.25 277.63 317.5 293.08 344.01 275.08 367.03 246.03 388.77 217.08 414.17 189.38 444.61 177.25 482.94 181.58 528.4 195.79 579.91 221.45 628.07 251.61 664.25 284.54 677.63 316.36 660.12 342.87Q660.11 342.88 660.11 342.88" opacity="0.68"></path></g></svg>